<?xml version="1.0" standalone="no"?>
<!DOCTYPE svg PUBLIC "-//W3C//DTD SVG 20010904//EN"
 "http://www.w3.org/TR/2001/REC-SVG-20010904/DTD/svg10.dtd">
<svg version="1.0" xmlns="http://www.w3.org/2000/svg"
 width="256.000000pt" height="256.000000pt" viewBox="0 0 256.000000 256.000000"
 preserveAspectRatio="xMidYMid meet">

<g transform="translate(0.000000,256.000000) scale(0.100000,-0.100000)"
fill="#000000" stroke="none">
<path d="M1658 2501 c-14 -11 -35 -47 -47 -81 -20 -54 -28 -64 -63 -80 -26
-12 -54 -16 -83 -13 -57 7 -69 -13 -48 -75 18 -56 8 -68 -60 -77 -63 -8 -104
-22 -111 -40 -2 -7 -18 -16 -35 -20 -17 -4 -40 -19 -51 -33 -11 -15 -31 -39
-45 -55 -28 -30 -30 -45 -14 -99 l10 -38 67 0 c170 0 356 -29 475 -74 62 -23
224 -101 263 -125 18 -12 24 -9 62 28 45 45 53 80 27 115 -8 11 -15 40 -15 66
0 51 -18 83 -60 105 -24 12 -29 24 -39 81 -10 57 -10 69 4 83 19 22 19 39 -1
108 l-16 55 -35 -5 c-41 -7 -113 24 -113 49 0 8 9 33 21 55 30 60 23 83 -27
87 -28 2 -47 -3 -66 -17z"/>
<path d="M1080 1857 c-15 -8 -26 -23 -28 -39 -3 -25 -2 -26 55 -26 114 1 325
-52 503 -124 86 -35 182 -84 145 -74 -20 6 -20 6 -1 -9 11 -8 25 -15 31 -15 6
0 22 -8 35 -17 52 -36 77 -22 90 48 10 52 -3 67 -105 117 -198 98 -639 183
-725 139z"/>
<path d="M1030 1773 c-76 -29 -131 -124 -215 -370 -36 -106 -104 -293 -151
-415 -107 -277 -106 -274 -88 -293 24 -24 31 -18 48 33 9 27 41 109 72 183 30
74 71 182 91 241 l36 108 17 -38 c9 -20 33 -52 53 -69 39 -34 47 -57 23 -66
-7 -3 -24 -27 -37 -53 -28 -60 -30 -153 -4 -205 26 -50 111 -133 130 -125 23
9 18 21 -30 76 -57 64 -61 111 -15 183 33 52 54 58 115 33 56 -24 59 -40 30
-168 -13 -62 -31 -153 -39 -203 -8 -49 -22 -112 -31 -139 -12 -35 -14 -51 -6
-59 17 -17 36 9 72 98 17 44 42 98 54 120 13 22 30 63 39 92 24 73 72 158 101
177 22 14 31 14 120 -5 143 -29 149 -35 145 -139 -2 -59 -9 -69 -60 -94 -24
-12 -44 -25 -44 -31 -2 -17 59 -17 98 -1 40 17 43 12 21 -41 -8 -19 -15 -43
-15 -52 0 -9 -16 -66 -36 -125 -31 -93 -34 -110 -22 -123 22 -22 47 -5 59 41
64 227 131 422 196 571 22 50 46 108 53 129 7 22 28 73 47 115 l34 75 -3 132
c-3 148 -14 178 -50 142 -18 -18 -19 -27 -13 -90 13 -124 9 -160 -25 -243 -18
-44 -38 -101 -46 -127 -8 -26 -20 -50 -26 -54 -7 -4 -8 -3 -4 5 5 7 0 44 -10
84 -13 55 -25 80 -51 106 -33 33 -35 34 -103 29 -44 -3 -82 -13 -107 -27 -97
-54 -122 -64 -139 -57 -17 7 -14 11 21 39 80 64 85 72 82 146 -4 74 -24 122
-63 148 -24 15 -38 16 -143 5 -113 -11 -117 -12 -146 -44 -16 -19 -42 -39 -57
-45 -31 -14 -42 -45 -36 -98 6 -55 -23 -40 -46 23 -15 43 -23 52 -42 52 -27 0
-29 -11 32 150 52 136 84 187 131 206 26 12 34 20 31 37 -3 22 -21 30 -48 20z
m146 -389 c9 -37 -11 -73 -51 -90 -51 -21 -55 -19 -55 35 0 56 22 81 72 81 21
0 29 -6 34 -26z m-155 -58 c-7 -8 -9 -21 -5 -28 5 -10 4 -10 -5 -2 -10 9 -10
17 -1 34 6 12 14 19 17 16 3 -3 0 -12 -6 -20z m197 -87 c4 -36 -20 -53 -63
-45 -32 6 -36 10 -33 34 2 18 11 28 28 33 44 13 65 6 68 -22z m-154 -15 c15
-38 6 -83 -20 -103 -15 -12 -30 -21 -34 -21 -15 0 -18 42 -6 73 7 18 16 40 19
50 8 21 33 22 41 1z m556 -126 c39 -40 53 -73 51 -115 -1 -21 4 -35 16 -41 16
-9 16 -12 -2 -52 -18 -40 -19 -41 -27 -18 -14 35 -78 96 -115 109 -19 6 -54
22 -80 36 l-45 26 56 28 c31 16 67 35 79 44 29 20 31 20 67 -17z"/>
<path d="M1106 1364 c-18 -17 -21 -40 -7 -48 11 -7 26 11 35 42 9 26 -5 29
-28 6z"/>
<path d="M1160 1232 c0 -14 11 -21 26 -15 8 3 11 9 8 14 -7 11 -34 12 -34 1z"/>
<path d="M1910 1538 c-10 -22 -17 -46 -15 -52 2 -6 6 -23 9 -38 9 -39 41 -37
66 5 33 54 21 127 -21 127 -14 0 -26 -13 -39 -42z"/>
<path d="M1866 1148 c-8 -13 -36 -83 -61 -156 -25 -73 -57 -150 -71 -171 -31
-47 -31 -126 -1 -145 46 -28 108 110 157 352 21 103 22 114 8 129 -15 14 -17
13 -32 -9z"/>
<path d="M514 629 c-39 -76 -84 -193 -84 -218 0 -25 16 -47 47 -65 6 -3 23 5
36 20 30 32 29 32 136 -61 l81 -70 -6 -46 c-6 -42 -4 -48 21 -67 42 -33 64
-28 82 18 13 31 20 39 32 34 22 -10 172 -59 251 -82 51 -15 66 -23 68 -41 3
-18 10 -21 50 -21 36 0 50 5 60 20 10 17 23 20 87 20 67 0 75 -2 75 -19 0 -20
32 -37 49 -27 15 9 71 165 71 196 0 61 -51 63 -79 4 -25 -54 -41 -64 -94 -64
-43 0 -48 2 -42 17 26 63 9 83 -67 83 -46 0 -49 -2 -54 -30 -5 -21 -12 -30
-26 -30 -44 0 -193 43 -252 72 l-63 31 5 62 c4 61 4 62 -30 89 -49 37 -64 33
-87 -19 -11 -25 -23 -45 -26 -45 -4 0 -27 14 -53 32 -105 70 -126 102 -109
167 10 38 10 44 -8 57 -30 22 -53 17 -71 -17z"/>
</g>
</svg>
