<?xml version="1.0" standalone="no"?>
<!DOCTYPE svg PUBLIC "-//W3C//DTD SVG 20010904//EN"
 "http://www.w3.org/TR/2001/REC-SVG-20010904/DTD/svg10.dtd">
<svg version="1.0" xmlns="http://www.w3.org/2000/svg"
 width="349.000000pt" height="529.000000pt" viewBox="0 0 349.000000 529.000000"
 preserveAspectRatio="xMidYMid meet">

<g transform="translate(0.000000,529.000000) scale(0.100000,-0.100000)"
fill="#000000" stroke="none">
<path d="M1270 5166 c-720 -649 -1175 -1455 -1249 -2210 -43 -436 47 -915 247
-1311 l35 -70 17 62 c37 136 123 248 227 296 41 19 65 22 168 22 103 -1 131
-4 195 -27 41 -14 76 -25 78 -23 1 1 -16 30 -39 65 -58 88 -140 252 -187 372
-296 771 -177 1643 341 2501 81 133 128 203 276 408 7 10 12 19 9 19 -2 0 -55
-47 -118 -104z"/>
<path d="M2462 3325 c-459 -46 -804 -183 -1015 -404 -160 -168 -228 -345 -228
-596 0 -102 2 -119 26 -168 52 -110 151 -181 271 -193 119 -13 224 65 265 195
18 60 19 81 13 236 -7 187 7 297 48 379 94 186 245 334 438 431 111 55 190 82
325 111 107 22 108 23 50 22 -33 0 -120 -6 -193 -13z"/>
<path d="M2380 2685 c-86 -39 -136 -100 -166 -201 -46 -159 27 -298 200 -380
59 -28 93 -37 172 -45 244 -25 393 -95 543 -255 137 -146 251 -376 302 -611
l13 -58 17 90 c84 423 -43 905 -311 1176 -125 126 -272 218 -435 269 -93 30
-283 38 -335 15z"/>
<path d="M1592 1701 c-257 -90 -333 -266 -218 -506 43 -91 112 -167 183 -201
48 -24 71 -28 168 -32 130 -5 187 9 257 63 73 55 128 184 128 298 -1 110 -56
268 -119 340 -43 48 -107 67 -225 67 -74 0 -106 -6 -174 -29z"/>
<path d="M567 1388 c-6 -91 6 -344 23 -458 23 -161 62 -293 120 -410 47 -93
183 -266 253 -321 123 -98 321 -167 542 -189 172 -17 322 2 514 67 223 74 405
188 568 356 242 249 370 551 349 823 -12 150 -8 149 -110 29 -205 -242 -465
-460 -671 -562 -176 -88 -307 -119 -428 -103 -208 29 -435 139 -659 319 -139
111 -335 318 -460 483 l-35 47 -6 -81z"/>
</g>
</svg>
