<?xml version="1.0" standalone="no"?>
<!DOCTYPE svg PUBLIC "-//W3C//DTD SVG 20010904//EN"
 "http://www.w3.org/TR/2001/REC-SVG-20010904/DTD/svg10.dtd">
<svg version="1.0" xmlns="http://www.w3.org/2000/svg"
 width="512.000000pt" height="512.000000pt" viewBox="0 0 512.000000 512.000000"
 preserveAspectRatio="xMidYMid meet">

<g transform="translate(0.000000,512.000000) scale(0.100000,-0.100000)"
fill="#000000" stroke="none">
<path d="M2370 5105 c-440 -73 -837 -366 -1114 -824 -239 -394 -380 -830 -438
-1356 -15 -142 -15 -588 0 -730 57 -517 195 -951 425 -1335 244 -408 589 -700
952 -805 325 -94 635 -65 945 90 149 75 267 162 406 300 484 482 764 1257 764
2115 0 730 -203 1402 -573 1900 -92 124 -288 318 -402 399 -159 112 -353 198
-535 237 -105 22 -324 27 -430 9z m130 -309 c-163 -57 -308 -152 -450 -296
-498 -500 -700 -1426 -485 -2218 116 -430 390 -769 663 -822 209 -42 419 84
536 319 104 211 132 430 80 627 -38 140 -40 173 -15 223 34 65 125 100 184 70
50 -26 78 -64 102 -140 44 -142 58 -241 52 -384 -9 -201 -49 -358 -135 -530
-161 -322 -457 -513 -764 -491 -154 10 -268 52 -413 149 -87 58 -112 81 -189
166 -219 243 -366 559 -441 948 -57 295 -59 733 -5 1023 42 226 234 628 406
851 245 318 596 526 889 527 l50 1 -65 -23z m524 -267 c112 -25 219 -68 320
-127 103 -60 138 -96 225 -227 192 -292 327 -647 395 -1040 23 -133 46 -366
45 -454 l-1 -76 -18 110 c-104 639 -379 1150 -755 1400 -141 94 -270 136 -419
136 -268 1 -510 -144 -682 -407 -113 -174 -174 -322 -230 -561 -20 -86 -26
-145 -31 -288 -10 -329 47 -577 180 -783 78 -121 220 -216 295 -197 15 3 58
25 96 47 84 51 142 57 194 20 62 -45 84 -137 47 -199 -49 -82 -241 -173 -363
-173 -121 0 -267 70 -388 184 -172 162 -281 390 -340 708 -22 116 -30 431 -15
554 29 232 97 469 187 647 227 452 565 715 959 746 110 9 194 3 299 -20z m-29
-585 c73 -19 190 -76 276 -135 151 -101 320 -311 425 -524 165 -340 237 -677
236 -1115 0 -404 -45 -608 -206 -945 -247 -514 -609 -839 -1015 -910 -46 -8
-102 -15 -125 -14 l-41 0 65 23 c290 102 542 335 733 674 212 380 318 873 287
1343 -20 307 -77 546 -186 776 -184 392 -490 613 -745 537 -188 -56 -308 -186
-403 -439 -36 -94 -51 -190 -50 -320 1 -98 6 -136 28 -208 14 -48 26 -107 26
-131 0 -86 -74 -152 -159 -142 -90 12 -126 65 -173 256 -28 112 -30 324 -5
455 65 336 234 601 472 742 72 43 116 60 215 84 89 22 250 19 345 -7z m-106
-550 c125 -31 184 -67 300 -183 117 -117 173 -202 236 -356 130 -322 156 -733
70 -1107 -59 -255 -126 -420 -248 -613 -312 -491 -829 -686 -1317 -497 -137
54 -265 138 -321 213 -297 395 -478 960 -503 1564 l-5 120 14 -85 c88 -527
252 -923 509 -1222 107 -125 280 -256 405 -306 356 -144 735 6 968 382 222
358 299 802 214 1223 -55 268 -179 475 -332 554 -71 36 -122 32 -204 -18 -90
-54 -115 -60 -171 -38 -59 22 -94 73 -94 135 0 79 56 140 186 202 104 49 187
58 293 32z"/>
</g>
</svg>
