<?xml version="1.0" standalone="no"?>
<!DOCTYPE svg PUBLIC "-//W3C//DTD SVG 20010904//EN"
 "http://www.w3.org/TR/2001/REC-SVG-20010904/DTD/svg10.dtd">
<svg version="1.0" xmlns="http://www.w3.org/2000/svg"
 width="256.000000pt" height="256.000000pt" viewBox="0 0 256.000000 256.000000"
 preserveAspectRatio="xMidYMid meet">

<g transform="translate(0.000000,256.000000) scale(0.100000,-0.100000)"
fill="#000000" stroke="none">
<path d="M2206 2042 c-10 -16 1 -379 11 -369 2 3 6 53 9 112 3 60 9 116 14
126 11 20 13 99 4 123 -7 17 -29 22 -38 8z"/>
<path d="M201 1991 c-38 -32 -38 -32 28 -120 23 -30 41 -57 41 -60 0 -3 -10
-19 -23 -34 l-22 -28 -95 45 -95 46 -17 -38 c-10 -20 -18 -42 -18 -48 0 -6 41
-30 91 -53 l91 -41 -7 -33 c-14 -70 -10 -67 -96 -67 l-79 0 0 -50 0 -50 80 0
c79 0 80 0 86 -27 29 -136 109 -248 227 -317 26 -16 47 -31 47 -36 0 -7 -18
-49 -60 -145 -97 -217 -101 -228 -97 -276 2 -25 9 -54 14 -63 10 -18 214 -166
266 -192 18 -9 47 -30 65 -45 67 -58 186 -25 231 64 18 35 36 54 65 69 123 62
244 176 308 293 39 69 130 288 143 340 9 40 23 55 51 55 12 0 26 5 29 10 3 6
21 10 40 10 49 0 88 54 95 129 l5 56 42 3 c23 2 52 -2 63 -8 18 -10 28 -4 83
52 34 35 70 74 78 88 15 23 23 25 86 25 42 0 81 -6 97 -14 20 -11 29 -12 38
-3 15 15 43 15 68 0 15 -10 22 -9 39 6 17 15 24 16 35 7 19 -16 184 -50 255
-54 l55 -2 13 45 c16 54 8 142 -16 170 -16 20 -17 20 -136 -5 -66 -14 -132
-25 -147 -25 -17 0 -28 -6 -31 -17 -4 -15 -5 -16 -6 -2 -1 19 -42 30 -65 17
-29 -16 -94 11 -159 66 -91 78 -155 116 -194 116 -38 0 -41 -9 -13 -35 25 -22
27 -44 3 -23 -32 27 -80 39 -144 38 -35 0 -73 0 -84 0 -11 1 -43 -2 -71 -6
-33 -4 -59 -2 -74 6 -16 9 -25 9 -33 1 -15 -15 -100 -14 -115 1 -9 9 -15 9
-24 0 -7 -7 -42 -12 -85 -12 -63 0 -73 2 -73 18 0 9 -5 33 -10 53 -13 47 -42
59 -138 59 -45 0 -104 8 -143 19 -92 26 -205 44 -234 37 -24 -6 -36 -36 -14
-36 25 0 -4 -18 -38 -24 -21 -3 -65 -20 -97 -36 -33 -17 -62 -27 -65 -22 -49
71 -95 132 -100 132 -3 0 -21 -13 -40 -29z m933 -694 c4 -19 16 -26 62 -36
103 -23 121 -69 80 -211 -63 -221 -213 -424 -364 -496 l-55 -26 -45 45 -44 44
15 97 c9 54 35 165 58 248 l43 150 30 -5 c17 -3 40 -9 50 -13 17 -6 18 -4 12
17 -23 72 -20 86 29 141 62 69 118 89 129 45z"/>
</g>
</svg>
