<?xml version="1.0" encoding="UTF-8"?>
<!DOCTYPE svg PUBLIC "-//W3C//DTD SVG 1.1//EN" "http://www.w3.org/Graphics/SVG/1.1/DTD/svg11.dtd">
<svg xmlns="http://www.w3.org/2000/svg" version="1.1" width="256px" height="256px" style="shape-rendering:geometricPrecision; text-rendering:geometricPrecision; image-rendering:optimizeQuality; fill-rule:evenodd; clip-rule:evenodd" xmlns:xlink="http://www.w3.org/1999/xlink">
<g><path style="opacity:0.806" fill="#000000" d="M 119.5,20.5 C 125.84,20.849 132.173,21.349 138.5,22C 138.167,22.3333 137.833,22.6667 137.5,23C 147.39,25.0713 155.223,30.238 161,38.5C 161.43,41.1922 161.263,43.8589 160.5,46.5C 158.294,47.5841 159.627,47.7508 164.5,47C 174.619,42.7131 180.952,35.2131 183.5,24.5C 185.474,20.8301 188.474,19.6634 192.5,21C 194,22.8333 195.5,24.6667 197,26.5C 197.667,31.5 197.667,36.5 197,41.5C 194.482,46.8926 192.649,52.5592 191.5,58.5C 183.806,73.1234 172.139,82.9567 156.5,88C 159.119,89.8565 159.952,92.3565 159,95.5C 158.667,95.1667 158.333,94.8333 158,94.5C 154.614,98.0969 151.114,101.597 147.5,105C 142.624,106.893 137.624,108.226 132.5,109C 132.833,109.333 133.167,109.667 133.5,110C 117.391,112.584 103.725,108.084 92.5,96.5C 91.1667,93.5 91.1667,90.5 92.5,87.5C 93.354,86.4783 94.354,85.6449 95.5,85C 87.1382,84.6842 80.3049,87.8508 75,94.5C 72.0557,99.2742 69.5557,104.274 67.5,109.5C 64.5,110.833 61.5,110.833 58.5,109.5C 57.1369,108.107 56.3036,106.441 56,104.5C 55.0871,92.9246 57.0871,81.9246 62,71.5C 70.7697,57.2824 82.603,48.1157 97.5,44C 93.6176,42.2484 92.6176,39.4151 94.5,35.5C 97.0572,34.023 99.0572,32.023 100.5,29.5C 107.153,25.4183 113.486,22.4183 119.5,20.5 Z M 122.5,35.5 C 127.368,35.2404 132.035,36.0738 136.5,38C 136.167,38.3333 135.833,38.6667 135.5,39C 137.952,39.2895 140.285,39.9562 142.5,41C 144.89,43.3929 147.557,45.3929 150.5,47C 137.483,47.6928 129.816,54.3594 127.5,67C 128.636,78.7985 134.969,85.7985 146.5,88C 135.157,96.815 123.157,98.1483 110.5,92C 107.161,89.6582 103.827,87.3249 100.5,85C 106.148,84.2943 111.815,82.6277 117.5,80C 125.276,71.6218 126.443,62.4551 121,52.5C 117.495,47.8879 112.328,45.0545 105.5,44C 106.995,42.8393 108.495,41.6727 110,40.5C 114.513,39.1376 118.68,37.4709 122.5,35.5 Z"/></g>
<g><path style="opacity:0.824" fill="#000000" d="M 255.5,149.5 C 255.5,150.5 255.5,151.5 255.5,152.5C 253.214,155.463 251.381,158.796 250,162.5C 240.353,173.647 230.186,184.314 219.5,194.5C 215.387,196.927 211.22,199.26 207,201.5C 206.967,205.353 207.467,209.186 208.5,213C 207.585,218.203 207.918,223.37 209.5,228.5C 209.487,233.999 206.82,235.832 201.5,234C 195.901,226.804 188.567,224.47 179.5,227C 176.163,228.672 172.83,230.339 169.5,232C 170.433,233.608 169.767,234.441 167.5,234.5C 162.36,232.015 161.36,228.348 164.5,223.5C 163.689,222.784 163.022,221.95 162.5,221C 163.388,219.78 164.055,218.447 164.5,217C 162.943,211.965 162.11,206.798 162,201.5C 159.076,191.734 155.743,181.4 152,170.5C 146.3,157.969 138.466,146.969 128.5,137.5C 118.08,146.122 109.914,157.122 104,170.5C 100.867,180.362 97.7007,189.862 94.5,199C 95.6537,199.914 95.487,200.747 94,201.5C 93.8902,206.798 93.0568,211.965 91.5,217C 91.9452,218.447 92.6119,219.78 93.5,221C 92.9777,221.95 92.311,222.784 91.5,223.5C 94.0999,226.925 93.9332,230.259 91,233.5C 89.6124,234.554 88.1124,234.72 86.5,234C 85.1667,233.333 85.1667,232.667 86.5,232C 81.2037,228.845 75.5371,227.012 69.5,226.5C 62.8945,225.803 57.8945,228.303 54.5,234C 49.1795,235.832 46.5129,233.999 46.5,228.5C 48.0822,223.37 48.4155,218.203 47.5,213C 48.5328,209.186 49.0328,205.353 49,201.5C 44.7797,199.26 40.6131,196.927 36.5,194.5C 25.8136,184.314 15.647,173.647 6,162.5C 4.35238,158.546 2.51905,154.712 0.5,151C 1.50649,147.969 3.50649,146.635 6.5,147C 14.4311,156.764 23.7644,164.931 34.5,171.5C 41.226,175.403 48.3927,178.07 56,179.5C 57.5,179.167 59,178.833 60.5,178.5C 62.6053,175.623 64.1053,172.623 65,169.5C 58.2757,160.955 51.4423,152.622 44.5,144.5C 42.5514,141.043 41.7181,137.376 42,133.5C 47.8932,132.644 51.8932,135.31 54,141.5C 55.214,143.049 56.714,144.215 58.5,145C 58.1667,145.333 57.8333,145.667 57.5,146C 62.7174,148.549 67.384,151.882 71.5,156C 73.1667,156.667 74.8333,156.667 76.5,156C 77.5505,154.615 78.8839,153.615 80.5,153C 80.1667,152.667 79.8333,152.333 79.5,152C 89.4431,143.204 100.11,135.371 111.5,128.5C 104.499,125.833 97.4985,123.166 90.5,120.5C 88.0977,115.167 89.7643,112.834 95.5,113.5C 107.116,115.235 117.949,117.568 128,120.5C 136.582,118.587 145.749,116.421 155.5,114C 158.833,113.333 162.167,113.333 165.5,114C 167.09,117.231 166.423,119.897 163.5,122C 156.888,123.483 150.555,125.65 144.5,128.5C 155.89,135.371 166.557,143.204 176.5,152C 176.167,152.333 175.833,152.667 175.5,153C 177.453,154.633 179.62,155.799 182,156.5C 187.362,152.895 192.862,149.395 198.5,146C 198.167,145.667 197.833,145.333 197.5,145C 199.286,144.215 200.786,143.049 202,141.5C 204.013,135.776 207.846,132.942 213.5,133C 214.387,136.985 213.72,140.818 211.5,144.5C 204.558,152.622 197.724,160.955 191,169.5C 191.895,172.623 193.395,175.623 195.5,178.5C 197,178.833 198.5,179.167 200,179.5C 212.713,176.282 224.213,170.615 234.5,162.5C 239.845,157.622 244.845,152.455 249.5,147C 250.5,146.333 251.5,146.333 252.5,147C 253.373,148.045 254.373,148.878 255.5,149.5 Z"/></g>
<g><path style="opacity:0.823" fill="#000000" d="M 120.5,176.5 C 140.475,173.485 148.475,181.818 144.5,201.5C 143.248,203.001 142.248,204.668 141.5,206.5C 135.071,210.373 128.071,211.54 120.5,210C 111.319,204.408 108.153,196.242 111,185.5C 113.187,181.386 116.354,178.386 120.5,176.5 Z"/></g>
</svg>
