<?xml version="1.0" encoding="UTF-8"?>
<!DOCTYPE svg PUBLIC "-//W3C//DTD SVG 1.1//EN" "http://www.w3.org/Graphics/SVG/1.1/DTD/svg11.dtd">
<svg xmlns="http://www.w3.org/2000/svg" version="1.1" width="256px" height="256px" style="shape-rendering:geometricPrecision; text-rendering:geometricPrecision; image-rendering:optimizeQuality; fill-rule:evenodd; clip-rule:evenodd" xmlns:xlink="http://www.w3.org/1999/xlink">
<g><path style="opacity:0.816" fill="#000000" d="M 85.5,57.5 C 108.351,57.8794 126.517,67.2128 140,85.5C 142.245,90.0383 144.245,94.705 146,99.5C 147.864,96.7928 150.364,95.9595 153.5,97C 157.02,100.686 160.353,104.519 163.5,108.5C 168.955,120.441 169.789,132.774 166,145.5C 162.801,151.906 158.634,157.573 153.5,162.5C 150.301,163.799 147.135,163.799 144,162.5C 145.565,174.097 152.398,181.597 164.5,185C 169.224,187.435 170.724,191.269 169,196.5C 163.409,201.744 156.909,202.911 149.5,200C 149.833,199.667 150.167,199.333 150.5,199C 125.496,194.992 109.662,180.825 103,156.5C 102.426,158.492 101.259,159.992 99.5,161C 99.8333,161.333 100.167,161.667 100.5,162C 98.4213,162.808 96.4213,162.641 94.5,161.5C 90.4999,156.997 86.6666,152.33 83,147.5C 82.3597,143.277 81.193,139.277 79.5,135.5C 73.1928,134.336 66.8595,134.169 60.5,135C 60.8333,135.333 61.1667,135.667 61.5,136C 58.2942,136.296 55.1275,136.796 52,137.5C 48.6021,139.943 47.9355,142.943 50,146.5C 55.522,149.363 61.3553,151.196 67.5,152C 67.1667,152.333 66.8333,152.667 66.5,153C 72.1958,153.17 77.8624,153.67 83.5,154.5C 84.8333,156.833 84.8333,159.167 83.5,161.5C 75.1287,162.128 66.7954,162.961 58.5,164C 57.1955,164.804 56.5288,165.971 56.5,167.5C 56.9881,172.467 58.3214,177.134 60.5,181.5C 60.2294,185.817 57.896,187.484 53.5,186.5C 51.0481,186.21 48.7148,185.544 46.5,184.5C 43.5915,186.328 40.5915,187.994 37.5,189.5C 34.1803,195.52 29.1803,198.52 22.5,198.5C 21.192,193.135 19.692,187.801 18,182.5C 17.3333,166.167 17.3333,149.833 18,133.5C 20.0481,130.187 21.0481,126.521 21,122.5C 22.9201,117.539 24.5867,112.539 26,107.5C 31.459,98.7196 36.459,89.7196 41,80.5C 48.158,71.3386 56.8247,64.0053 67,58.5C 70.6767,59.1722 72.5101,61.3389 72.5,65C 70.9655,70.8743 67.7988,75.7077 63,79.5C 59.9573,83.2098 57.7906,87.3765 56.5,92C 58.2526,95.7198 61.2526,97.7198 65.5,98C 71.5,98.3333 77.5,98.6667 83.5,99C 84.5762,100.726 84.7429,102.559 84,104.5C 75.6319,106.096 67.1319,107.763 58.5,109.5C 57.0663,110.23 55.8996,111.23 55,112.5C 48.6488,114.958 48.1488,118.792 53.5,124C 62.1144,125.297 70.7811,125.797 79.5,125.5C 79.7854,113.414 84.4521,103.414 93.5,95.5C 98.0084,93.9188 101.842,94.9188 105,98.5C 105.167,97.5 105.333,96.5 105.5,95.5C 103.926,89.0253 100.759,83.3587 96,78.5C 91.1766,75.1786 86.0099,72.512 80.5,70.5C 79.1667,67.5 79.1667,64.5 80.5,61.5C 82.2748,60.1624 83.9414,58.829 85.5,57.5 Z M 149.5,143.5 C 148.278,146.561 146.445,149.227 144,151.5C 142.964,147.09 141.631,142.756 140,138.5C 126.337,127.358 114.504,129.025 104.5,143.5C 103.686,145.766 103.186,148.1 103,150.5C 89.9545,135.6 90.4545,120.267 104.5,104.5C 107.561,124.672 118.561,131.172 137.5,124C 142.316,119.865 145.149,114.698 146,108.5C 147.557,111.943 149.39,115.277 151.5,118.5C 152.089,121.837 153.089,125.004 154.5,128C 153.718,130.74 153.218,133.574 153,136.5C 151.384,138.713 150.217,141.047 149.5,143.5 Z"/></g>
<g><path style="opacity:0.825" fill="#000000" d="M 220.5,61.5 C 223.167,61.5 225.833,61.5 228.5,61.5C 229.17,65.6739 230.337,69.6739 232,73.5C 232.667,91.8333 232.667,110.167 232,128.5C 229.882,136.458 227.382,144.458 224.5,152.5C 219.109,161.72 213.943,171.054 209,180.5C 202.518,187.98 195.352,194.813 187.5,201C 184.854,201.497 182.187,201.664 179.5,201.5C 178.624,198.201 178.457,194.868 179,191.5C 184.721,184.554 189.555,177.054 193.5,169C 193.39,165.599 191.723,163.599 188.5,163C 181.476,162.831 174.476,162.331 167.5,161.5C 166.456,159.232 166.289,156.899 167,154.5C 176.289,153.909 184.789,152.742 192.5,151C 196.617,149.22 199.284,146.22 200.5,142C 200.385,140.105 199.718,138.438 198.5,137C 189.259,135.209 179.926,134.209 170.5,134C 168.987,131.084 169.32,128.418 171.5,126C 179.551,125.822 187.551,125.156 195.5,124C 201.998,122.19 203.331,118.356 199.5,112.5C 189.834,108.581 179.167,106.414 167.5,106C 166.409,103.936 166.242,101.769 167,99.5C 173.753,98.686 180.586,98.186 187.5,98C 189.959,96.9358 192.292,95.6025 194.5,94C 193.973,88.8039 192.64,83.8039 190.5,79C 190.348,74.6636 192.515,72.8303 197,73.5C 203.234,76.2401 208.901,75.2401 214,70.5C 216.252,67.6056 218.418,64.6056 220.5,61.5 Z"/></g>
<g><path style="opacity:0.004" fill="#000000" d="M 24.5,200.5 C 24.8966,199.475 25.5632,199.308 26.5,200C 25.9056,200.464 25.2389,200.631 24.5,200.5 Z"/></g>
</svg>
