<?xml version="1.0" encoding="UTF-8"?>
<!DOCTYPE svg PUBLIC "-//W3C//DTD SVG 1.1//EN" "http://www.w3.org/Graphics/SVG/1.1/DTD/svg11.dtd">
<svg xmlns="http://www.w3.org/2000/svg" version="1.1" width="256px" height="256px" style="shape-rendering:geometricPrecision; text-rendering:geometricPrecision; image-rendering:optimizeQuality; fill-rule:evenodd; clip-rule:evenodd" xmlns:xlink="http://www.w3.org/1999/xlink">
<g><path style="opacity:0.841" fill="#000000" d="M 138.5,80.5 C 150.091,68.3142 164.425,61.3142 181.5,59.5C 191.451,58.6829 195.284,63.0163 193,72.5C 187.626,74.7705 182.459,77.4371 177.5,80.5C 168.281,89.2948 165.115,99.9615 168,112.5C 176.408,104.182 186.242,102.182 197.5,106.5C 207.576,110.58 215.909,116.913 222.5,125.5C 225.232,129.724 227.732,134.058 230,138.5C 230.411,143.483 231.744,148.15 234,152.5C 235.286,158.917 234.119,164.75 230.5,170C 227.5,170.667 224.5,170.667 221.5,170C 219.242,164.652 216.576,159.485 213.5,154.5C 203.733,145.151 192.066,141.651 178.5,144C 191.864,157.456 197.03,173.623 194,192.5C 190.481,196.001 186.647,196.335 182.5,193.5C 176.458,173.81 163.125,165.476 142.5,168.5C 132.997,166.829 127.831,161.162 127,151.5C 125.374,158.217 122.874,164.55 119.5,170.5C 122.949,169.361 126.449,168.361 130,167.5C 139.143,167.364 145.643,171.364 149.5,179.5C 151.774,189.879 150.441,199.712 145.5,209C 142.267,211.985 139.934,215.485 138.5,219.5C 131.669,224.568 124.335,228.901 116.5,232.5C 111.841,232.949 107.508,234.282 103.5,236.5C 96.8691,238.538 90.8691,237.538 85.5,233.5C 84.1667,230.5 84.1667,227.5 85.5,224.5C 91.4973,222.021 97.1639,218.854 102.5,215C 104.7,212.766 106.533,210.266 108,207.5C 110.024,197.813 111.358,188.146 112,178.5C 107.91,181.46 103.744,184.294 99.5,187C 99.8333,187.333 100.167,187.667 100.5,188C 93.4397,190.169 86.4397,192.335 79.5,194.5C 74.8333,195.833 70.1667,195.833 65.5,194.5C 60.87,191.7 59.5366,187.7 61.5,182.5C 64.0684,180.283 67.0684,179.116 70.5,179C 70.1667,178.667 69.8333,178.333 69.5,178C 77.7147,174.784 83.2147,168.95 86,160.5C 86.8265,156.459 86.6599,152.459 85.5,148.5C 82.8009,150.848 79.8009,152.682 76.5,154C 76.8333,154.333 77.1667,154.667 77.5,155C 54.5335,157.114 37.5335,147.281 26.5,125.5C 24.5629,119.352 22.3962,113.352 20,107.5C 18.4875,101.162 19.6542,95.4955 23.5,90.5C 26.5,89.1667 29.5,89.1667 32.5,90.5C 33.727,91.5904 34.5604,92.9238 35,94.5C 35.3333,94.1667 35.6667,93.8333 36,93.5C 36.4922,94.549 36.3256,95.549 35.5,96.5C 37.9342,101.785 41.2676,106.451 45.5,110.5C 47.1151,111.154 48.7818,111.654 50.5,112C 50.1667,112.333 49.8333,112.667 49.5,113C 57.2501,115.152 65.2501,116.152 73.5,116C 76.3527,117.43 79.3527,118.263 82.5,118.5C 66.6707,104.867 59.504,87.534 61,66.5C 63.5028,61.8187 67.3362,60.4853 72.5,62.5C 74.4306,67.8638 77.0972,72.8638 80.5,77.5C 84.5337,82.1769 88.8671,85.3436 93.5,87C 98.5,87.6667 103.5,87.6667 108.5,87C 104.972,85.1347 102.472,82.3014 101,78.5C 99.0157,67.4273 100.849,57.094 106.5,47.5C 109.256,45.9089 111.089,43.5755 112,40.5C 120.332,32.3209 130.165,26.9876 141.5,24.5C 143.911,23.912 145.911,22.7454 147.5,21C 151.833,20.3333 156.167,20.3333 160.5,21C 161.957,22.6974 163.623,24.1974 165.5,25.5C 166.833,28.5 166.833,31.5 165.5,34.5C 161.048,36.6139 156.548,38.6139 152,40.5C 146.788,44.3772 143.121,49.3772 141,55.5C 140.823,63.9344 139.99,72.2677 138.5,80.5 Z M 138.5,80.5 C 138.361,82.337 137.694,82.6704 136.5,81.5C 136.957,80.7025 137.624,80.3691 138.5,80.5 Z M 133.5,86.5 C 131.42,90.7411 129.586,95.0744 128,99.5C 126.885,96.0536 124.718,93.5536 121.5,92C 124.861,90.2119 128.861,88.3786 133.5,86.5 Z M 127.5,115.5 C 129.44,117.471 131.107,119.804 132.5,122.5C 142.794,130.377 153.127,130.377 163.5,122.5C 163.969,126.697 165.303,130.53 167.5,134C 164.071,132.472 160.404,131.139 156.5,130C 150.294,129.228 144.128,129.395 138,130.5C 130.543,134.185 126.876,140.185 127,148.5C 126.667,145.167 126.333,141.833 126,138.5C 123.329,133.996 119.829,130.33 115.5,127.5C 118.167,125.833 120.833,124.167 123.5,122.5C 125.812,120.701 127.145,118.368 127.5,115.5 Z M 82.5,118.5 C 83.8333,118.5 84.5,119.167 84.5,120.5C 84.5,119.167 83.8333,118.5 82.5,118.5 Z M 84.5,120.5 C 89.4564,123.474 94.7897,125.641 100.5,127C 96.6138,128.527 93.1138,130.694 90,133.5C 89.2106,128.656 87.3773,124.323 84.5,120.5 Z M 119.5,170.5 C 119.027,171.906 118.027,172.573 116.5,172.5C 116.973,171.094 117.973,170.427 119.5,170.5 Z"/></g>
</svg>
