<?xml version="1.0" encoding="UTF-8"?>
<!DOCTYPE svg PUBLIC "-//W3C//DTD SVG 1.1//EN" "http://www.w3.org/Graphics/SVG/1.1/DTD/svg11.dtd">
<svg xmlns="http://www.w3.org/2000/svg" version="1.1" width="256px" height="256px" style="shape-rendering:geometricPrecision; text-rendering:geometricPrecision; image-rendering:optimizeQuality; fill-rule:evenodd; clip-rule:evenodd" xmlns:xlink="http://www.w3.org/1999/xlink">
<g><path style="opacity:0.828" fill="#000000" d="M 72.5,26.5 C 88.8367,26.3334 105.17,26.5001 121.5,27C 131.75,29.0638 141.75,32.0638 151.5,36C 158.693,40.3473 166.026,44.514 173.5,48.5C 177.565,52.5717 181.898,56.2383 186.5,59.5C 189.845,63.3467 193.012,67.3467 196,71.5C 196.497,74.146 196.664,76.8127 196.5,79.5C 193.531,80.3287 190.531,80.4954 187.5,80C 181.506,75.675 175.506,71.3416 169.5,67C 163.058,63.7344 159.224,65.5678 158,72.5C 157.667,78.8333 157.333,85.1667 157,91.5C 154.599,92.6023 152.099,92.769 149.5,92C 148.73,84.2131 147.896,76.3798 147,68.5C 146.145,65.8853 144.812,63.552 143,61.5C 139.333,57.5 135.667,57.5 132,61.5C 130.169,70.0602 129.169,78.7269 129,87.5C 125.016,89.4854 122.183,88.4854 120.5,84.5C 121.61,79.8887 121.777,75.222 121,70.5C 119.959,66.4387 118.792,62.4387 117.5,58.5C 114.167,58.5 110.833,58.5 107.5,58.5C 106.911,63.1901 105.577,67.6901 103.5,72C 102.823,78.1503 102.323,84.3169 102,90.5C 100.192,92.3959 98.025,92.8959 95.5,92C 93.724,85.4427 92.8907,78.6093 93,71.5C 91.883,70.0506 91.2163,68.3839 91,66.5C 89.2622,65.8729 87.4289,65.5396 85.5,65.5C 81.4286,65.7977 77.5953,66.7977 74,68.5C 70.4647,68.9911 68.6313,67.4911 68.5,64C 68.9287,60.785 69.5954,57.6183 70.5,54.5C 68.9462,52.0559 67.9462,49.3892 67.5,46.5C 66.448,46.6495 65.448,46.4828 64.5,46C 64.8333,45.6667 65.1667,45.3333 65.5,45C 58.9823,42.3218 55.9823,37.4885 56.5,30.5C 61.9721,29.3141 67.3054,27.9808 72.5,26.5 Z"/></g>
<g><path style="opacity:0.821" fill="#000000" d="M 120.5,89.5 C 132.577,87.6036 143.577,90.1036 153.5,97C 156.715,99.2143 159.215,102.048 161,105.5C 161.828,109.697 160.328,112.864 156.5,115C 163.031,114.74 168.698,112.24 173.5,107.5C 177.613,102.272 180.946,96.6048 183.5,90.5C 189.293,88.3681 193.459,90.0348 196,95.5C 197.143,100.837 196.476,105.837 194,110.5C 191.976,123.09 186.476,133.923 177.5,143C 170.765,148.367 163.432,152.7 155.5,156C 156.667,156.5 157.5,157.333 158,158.5C 158.333,158.167 158.667,157.833 159,157.5C 159.808,159.579 159.641,161.579 158.5,163.5C 152.325,171.111 144.325,175.611 134.5,177C 119.765,179.696 106.765,176.196 95.5,166.5C 91.8962,162.783 90.8962,158.45 92.5,153.5C 97.9155,150.417 102.582,151.25 106.5,156C 119.391,165.811 133.057,165.811 147.5,156C 130.462,153.765 123.962,144.265 128,127.5C 130.455,120.716 135.288,116.882 142.5,116C 145.833,115.667 149.167,115.333 152.5,115C 149.821,113.236 147.154,111.569 144.5,110C 144.833,109.667 145.167,109.333 145.5,109C 132.322,101.578 119.655,101.911 107.5,110C 118.219,112.586 123.885,119.42 124.5,130.5C 123.585,141.175 117.918,147.675 107.5,150C 86.6497,147.303 73.6497,155.469 68.5,174.5C 67.5,175 66.5,175.5 65.5,176C 77.7393,186.71 91.406,193.044 106.5,195C 122.571,195.931 138.571,195.264 154.5,193C 159.206,190.474 164.872,188.474 171.5,187C 175.508,185.829 178.508,186.995 180.5,190.5C 177.964,194.642 177.964,198.808 180.5,203C 180.355,203.772 180.022,204.439 179.5,205C 182.471,208.308 185.471,211.641 188.5,215C 189.793,215.49 191.127,215.657 192.5,215.5C 192.777,218.448 192.444,221.281 191.5,224C 182.094,225.781 172.76,227.781 163.5,230C 155.95,229.171 148.283,228.337 140.5,227.5C 138.56,228.095 136.56,228.428 134.5,228.5C 110.416,223.989 89.083,213.822 70.5,198C 65.2037,191.921 60.5371,185.421 56.5,178.5C 58.1865,175.61 57.6865,172.61 55,169.5C 54.2029,147.807 63.0362,129.974 81.5,116C 85.6237,113.758 89.9571,111.925 94.5,110.5C 93.4798,108.568 93.3131,106.568 94,104.5C 97.5,101.333 101,98.1667 104.5,95C 109.189,93.0657 114.522,91.2324 120.5,89.5 Z"/></g>
</svg>
