<?xml version="1.0" encoding="UTF-8"?>
<!DOCTYPE svg PUBLIC "-//W3C//DTD SVG 1.1//EN" "http://www.w3.org/Graphics/SVG/1.1/DTD/svg11.dtd">
<svg xmlns="http://www.w3.org/2000/svg" version="1.1" width="256px" height="256px" style="shape-rendering:geometricPrecision; text-rendering:geometricPrecision; image-rendering:optimizeQuality; fill-rule:evenodd; clip-rule:evenodd" xmlns:xlink="http://www.w3.org/1999/xlink">
<g><path style="opacity:0.808" fill="#000000" d="M 70.5,17.5 C 90.194,17.9513 107.194,25.7846 121.5,41C 121.167,41.3333 120.833,41.6667 120.5,42C 122.681,43.3484 124.348,45.1818 125.5,47.5C 127.275,51.3854 128.775,55.3854 130,59.5C 131.465,55.181 134.298,53.8476 138.5,55.5C 141.48,59.3142 144.646,62.9809 148,66.5C 154.83,83.048 153.663,99.048 144.5,114.5C 141.683,116.817 139.016,119.317 136.5,122C 130.663,123.652 126.996,121.652 125.5,116C 129.307,110.22 132.474,104.054 135,97.5C 135.333,97.8333 135.667,98.1667 136,98.5C 136.649,95.0602 137.482,91.7268 138.5,88.5C 137.58,84.1041 136.247,79.9375 134.5,76C 134.957,75.586 135.291,75.086 135.5,74.5C 133.427,71.9732 131.594,69.3065 130,66.5C 129.384,79.7825 122.384,86.7825 109,87.5C 103.414,86.3586 98.4137,84.0253 94,80.5C 91.3269,74.8428 89.6603,69.1761 89,63.5C 83.1047,69.4824 79.2714,76.6491 77.5,85C 78.5578,92.1119 80.7245,98.9452 84,105.5C 86.2004,100.421 89.367,96.0877 93.5,92.5C 104.581,87.8028 113.748,89.4694 121,97.5C 122,100.167 123,102.833 124,105.5C 124.032,113.645 125.032,121.645 127,129.5C 128.833,133.333 131.667,136.167 135.5,138C 135.167,138.333 134.833,138.667 134.5,139C 139.504,141.502 144.504,144.002 149.5,146.5C 151.152,150.557 150.485,154.057 147.5,157C 128.023,159.753 111.19,154.253 97,140.5C 95.0488,137.214 92.7154,134.214 90,131.5C 88.1491,127.996 86.8158,124.33 86,120.5C 83.568,120.523 81.068,120.19 78.5,119.5C 76.1876,116.021 73.3542,113.021 70,110.5C 60.884,93.0941 61.384,76.0941 71.5,59.5C 74.3116,57.5227 76.9783,55.356 79.5,53C 83.627,51.7081 86.7937,52.8748 89,56.5C 88.8423,50.0125 86.3423,44.5125 81.5,40C 76.1639,36.146 70.4973,32.9794 64.5,30.5C 63.1667,27.5 63.1667,24.5 64.5,21.5C 66.9106,20.6389 68.9106,19.3056 70.5,17.5 Z"/></g>
<g><path style="opacity:0.833" fill="#000000" d="M 145.5,37.5 C 148.765,37.918 151.765,39.0847 154.5,41C 154.167,41.3333 153.833,41.6667 153.5,42C 158.996,48.4952 164.829,54.6619 171,60.5C 183.833,80.6362 192.833,102.303 198,125.5C 204.766,150.838 198.266,171.338 178.5,187C 178.833,187.333 179.167,187.667 179.5,188C 174.601,193.861 171.601,200.695 170.5,208.5C 169.668,217.482 169.168,226.482 169,235.5C 166.034,238.265 163.367,237.932 161,234.5C 160.598,226.477 159.932,218.477 159,210.5C 158.123,206.892 156.623,203.559 154.5,200.5C 148.511,197.36 144.344,199.026 142,205.5C 140.97,209.773 140.303,214.106 140,218.5C 139.667,217.5 139.333,216.5 139,215.5C 138.5,222.158 138.334,228.825 138.5,235.5C 136.857,235.48 135.524,236.147 134.5,237.5C 133.833,236.833 133.167,236.167 132.5,235.5C 131.419,224.015 129.586,212.681 127,201.5C 121.539,197.146 117.872,198.479 116,205.5C 115.131,210.269 114.131,214.936 113,219.5C 112.667,224.5 112.333,229.5 112,234.5C 109.633,237.932 106.966,238.265 104,235.5C 103.73,226.335 102.396,217.335 100,208.5C 98.2742,205.991 96.7742,203.324 95.5,200.5C 93.974,199.094 92.3073,197.928 90.5,197C 89.5,196.333 88.5,196.333 87.5,197C 81.7086,200.62 76.0419,204.454 70.5,208.5C 69.4688,209.7 68.6355,211.034 68,212.5C 67.6667,216.167 67.3333,219.833 67,223.5C 66.6667,223.167 66.3333,222.833 66,222.5C 65.4638,229.135 62.7971,230.135 58,225.5C 57.3333,217.167 57.3333,208.833 58,200.5C 60.6856,190.084 65.019,180.417 71,171.5C 76.5947,167.453 82.7614,164.62 89.5,163C 108.173,162.676 126.84,162.676 145.5,163C 147.615,162.443 149.615,161.609 151.5,160.5C 157.297,155.545 162.131,149.879 166,143.5C 167.961,132.56 168.961,121.56 169,110.5C 168.667,111.167 168.333,111.833 168,112.5C 172.501,84.9264 164.667,61.9264 144.5,43.5C 144.069,42.7065 143.735,41.8732 143.5,41C 144.429,39.9231 145.096,38.7564 145.5,37.5 Z"/></g>
</svg>
