<?xml version="1.0" standalone="no"?>
<!DOCTYPE svg PUBLIC "-//W3C//DTD SVG 20010904//EN"
 "http://www.w3.org/TR/2001/REC-SVG-20010904/DTD/svg10.dtd">
<svg version="1.0" xmlns="http://www.w3.org/2000/svg"
 width="256.000000pt" height="256.000000pt" viewBox="0 0 256.000000 256.000000"
 preserveAspectRatio="xMidYMid meet">

<g transform="translate(0.000000,256.000000) scale(0.100000,-0.100000)"
fill="#000000" stroke="none">
<path d="M714 1866 c-58 -26 -49 -35 35 -34 69 1 85 -2 125 -26 25 -15 46 -30
46 -34 0 -24 -175 -165 -185 -150 -1 2 -12 20 -24 40 -47 79 -106 96 -200 60
-70 -27 -64 -42 17 -42 l69 0 17 -43 c9 -23 16 -52 16 -64 0 -81 -133 -31
-216 81 -61 84 -81 92 -161 67 -35 -11 -79 -23 -98 -27 -20 -3 -34 -11 -32
-18 3 -7 38 -11 104 -11 113 0 119 -3 169 -80 56 -87 133 -145 194 -145 26 0
25 -7 -2 -31 -33 -27 -116 -24 -218 6 -93 28 -167 32 -195 11 -18 -13 -16 -15
30 -21 66 -9 126 -27 202 -59 40 -16 81 -26 113 -26 39 0 50 -3 50 -16 0 -16
36 -73 53 -85 5 -4 6 -12 3 -18 -5 -7 4 -14 23 -17 17 -4 31 -9 31 -13 -1 -13
-123 -94 -170 -112 -28 -10 -88 -26 -134 -34 -144 -25 -291 -65 -338 -93 -30
-18 -39 -49 -12 -38 54 21 232 50 396 65 68 7 115 17 153 34 l54 25 37 -34
c65 -59 259 -126 278 -95 4 6 1 11 -6 11 -23 0 -134 58 -113 59 11 1 37 -8 58
-19 44 -24 67 -26 67 -5 0 19 3 19 42 -5 18 -11 41 -20 52 -20 16 0 17 5 12
44 -4 27 -3 47 4 51 6 4 10 -4 10 -20 0 -36 18 -22 26 21 3 19 9 33 12 30 3
-3 12 0 20 7 8 6 13 8 11 2 -3 -5 -15 -32 -28 -58 -37 -79 -18 -76 43 6 58 79
85 105 41 41 -14 -20 -25 -41 -25 -45 0 -12 17 -11 25 1 3 6 10 10 16 10 5 0
-1 -21 -15 -47 -56 -112 -40 -125 28 -23 25 39 48 70 50 70 13 0 -32 -84 -51
-97 -28 -19 -29 -27 -2 -65 16 -21 23 -50 27 -100 l5 -70 33 36 c38 41 30 39
150 36 51 -1 125 1 166 5 72 7 75 8 70 31 -5 28 22 64 48 64 25 0 40 -21 40
-57 0 -36 32 -73 62 -73 24 0 70 24 88 45 8 9 16 35 19 58 6 39 9 42 51 54 25
7 53 17 64 24 12 7 40 8 77 4 l59 -7 0 -46 c0 -65 18 -96 56 -100 19 -2 36 3
44 13 12 15 15 12 29 -26 19 -49 38 -64 73 -56 39 10 42 22 92 307 8 47 26
135 39 195 37 163 40 191 22 209 -9 8 -22 13 -30 10 -11 -5 -15 1 -15 20 0 38
-36 103 -60 111 -40 13 -75 -28 -104 -119 -6 -18 -10 -16 -44 17 -20 20 -48
41 -62 46 -14 6 -32 15 -40 21 -8 5 -37 19 -65 31 -40 17 -57 34 -86 78 -36
57 -53 69 -174 120 -33 15 -66 21 -98 19 -43 -3 -49 0 -64 24 -16 25 -16 28 2
47 18 21 17 23 -20 25 -13 1 -19 7 -17 19 5 28 -25 19 -49 -15 -35 -51 -88
-82 -173 -102 l-28 -7 21 34 c24 39 27 67 9 85 -21 21 -33 13 -63 -38 -32 -53
-51 -66 -35 -24 7 18 6 33 -5 55 -22 42 -43 37 -57 -16 -11 -40 -28 -62 -28
-35 0 15 -81 57 -137 70 -29 6 -96 11 -150 11 -54 -1 -125 1 -158 4 -40 3 -70
0 -91 -9z m339 -42 c20 -4 37 -11 37 -16 0 -5 -6 -8 -12 -5 -7 2 -20 -2 -29
-10 -14 -12 -21 -11 -53 8 -20 11 -36 23 -36 25 0 6 50 5 93 -2z m111 -30 c14
-5 14 -9 -1 -35 -23 -38 -30 -37 -29 6 1 36 4 39 30 29z m521 -44 c3 -5 1 -10
-4 -10 -6 0 -11 5 -11 10 0 6 2 10 4 10 3 0 8 -4 11 -10z m-695 -20 c0 -5 -5
-10 -11 -10 -5 0 -7 5 -4 10 3 6 8 10 11 10 2 0 4 -4 4 -10z m225 -10 c-10
-11 -20 -18 -23 -15 -7 6 18 35 31 35 5 0 2 -9 -8 -20z m485 -14 c0 -3 -4 -8
-10 -11 -5 -3 -10 -1 -10 4 0 6 5 11 10 11 6 0 10 -2 10 -4z m-135 -46 c-3 -5
-11 -10 -16 -10 -6 0 -7 5 -4 10 3 6 11 10 16 10 6 0 7 -4 4 -10z m155 -80 c0
-5 -5 -10 -11 -10 -5 0 -7 5 -4 10 3 6 8 10 11 10 2 0 4 -4 4 -10z m-155 -40
c-10 -11 -22 -17 -26 -14 -15 9 -10 22 9 27 33 9 35 7 17 -13z m-75 -35 c10
-12 6 -18 -22 -35 -55 -33 -83 -20 -54 25 18 28 57 33 76 10z m-754 -170 c-21
-16 -32 -13 -21 4 3 6 14 11 23 11 15 -1 15 -2 -2 -15z m164 -106 c-12 -39
-15 -43 -35 -35 -15 5 -14 10 7 35 30 39 39 38 28 0z m-150 6 c-7 -8 -24 -14
-39 -14 l-26 2 25 4 c14 3 29 9 35 14 15 15 19 10 5 -6z m798 -53 c3 -19 -1
-23 -15 -20 -10 2 -19 14 -21 26 -3 19 1 23 15 20 10 -2 19 -14 21 -26z m85
-100 c22 -24 33 -114 17 -152 -7 -16 -15 -30 -19 -30 -13 0 -51 80 -51 108 0
34 19 92 29 92 5 0 15 -8 24 -18z m-813 -32 c64 -39 64 -40 31 -40 -38 0 -171
30 -171 39 0 8 52 40 65 40 6 0 39 -18 75 -39z m227 -7 c-3 -10 -5 -2 -5 17 0
19 2 27 5 18 2 -10 2 -26 0 -35z m83 43 c0 -3 -4 -8 -10 -11 -5 -3 -10 -1 -10
4 0 6 5 11 10 11 6 0 10 -2 10 -4z m403 -70 c9 -7 17 -26 17 -41 0 -17 12 -39
34 -61 l34 -34 -41 -30 c-52 -38 -105 -43 -139 -13 -25 22 -9 87 18 76 12 -4
14 0 8 22 -6 25 -5 27 15 20 19 -6 21 -4 15 19 -7 27 0 56 13 56 4 0 16 -7 26
-14z"/>
</g>
</svg>
