<?xml version="1.0" standalone="no"?>
<!DOCTYPE svg PUBLIC "-//W3C//DTD SVG 20010904//EN"
 "http://www.w3.org/TR/2001/REC-SVG-20010904/DTD/svg10.dtd">
<svg version="1.0" xmlns="http://www.w3.org/2000/svg"
 width="256.000000pt" height="256.000000pt" viewBox="0 0 256.000000 256.000000"
 preserveAspectRatio="xMidYMid meet">

<g transform="translate(0.000000,256.000000) scale(0.100000,-0.100000)"
fill="#000000" stroke="none">
<path d="M62 2507 c-12 -26 -19 -54 -16 -62 4 -8 1 -21 -5 -29 -14 -16 -22
-244 -9 -252 5 -3 6 -19 3 -34 -5 -22 -1 -31 15 -43 18 -13 20 -21 14 -66 -6
-47 -5 -51 15 -51 11 0 21 -4 21 -10 0 -5 -5 -10 -11 -10 -14 0 -2 -57 19 -90
9 -14 21 -34 27 -45 6 -11 20 -20 31 -19 16 1 19 -4 16 -26 -3 -18 3 -35 15
-47 10 -11 23 -28 28 -38 6 -10 14 -17 19 -16 9 2 36 -45 36 -64 0 -15 25 -27
63 -30 15 -2 36 -9 45 -18 24 -21 102 -57 124 -57 11 0 18 -6 17 -12 -4 -24
13 -48 33 -48 13 0 18 -5 15 -14 -3 -7 0 -19 6 -25 6 -6 12 -21 14 -33 2 -12
11 -30 20 -40 15 -17 18 -17 25 -3 5 8 18 15 29 15 11 0 22 6 25 13 3 9 19 12
47 11 23 -2 47 -3 54 -3 6 -1 30 -18 52 -39 43 -40 61 -82 61 -143 0 -32 4
-39 35 -53 19 -9 37 -21 41 -27 3 -6 16 -14 29 -19 15 -6 35 -32 54 -70 16
-34 38 -68 48 -75 17 -13 17 -15 -5 -44 -28 -39 -28 -41 8 -41 35 0 110 -28
110 -42 0 -5 9 -6 21 -3 14 5 28 -1 46 -19 18 -18 30 -23 37 -16 19 19 36 10
36 -20 0 -31 16 -41 26 -16 7 17 28 27 72 33 30 3 33 1 27 -17 -4 -13 -1 -22
9 -26 24 -9 20 -18 -24 -46 -57 -38 -108 -40 -139 -7 -25 27 -41 21 -55 -21
-11 -33 -14 -35 -54 -34 -37 1 -50 7 -88 45 -25 24 -52 59 -60 77 -19 46 -35
31 -28 -25 8 -67 58 -153 90 -153 6 0 17 -7 24 -15 6 -7 31 -17 55 -21 25 -3
49 -12 56 -20 6 -8 21 -11 39 -8 21 5 31 1 43 -17 20 -28 14 -39 -21 -39 -33
0 -57 -14 -48 -28 10 -17 69 -20 103 -6 43 19 43 19 43 -17 l0 -31 31 31 c37
38 46 38 61 6 6 -14 15 -25 20 -25 4 0 8 -6 8 -13 0 -14 61 -77 75 -77 4 0 16
-7 25 -15 16 -14 50 -12 50 4 0 3 -16 17 -36 31 -19 14 -46 46 -59 71 -20 39
-22 52 -15 81 11 40 44 78 68 79 9 1 32 0 49 -1 26 -1 35 4 44 24 16 33 34 33
56 -2 10 -15 22 -30 28 -34 67 -47 116 -78 123 -78 4 0 18 -11 32 -24 76 -74
121 -114 170 -153 30 -24 75 -69 100 -101 37 -45 56 -60 100 -75 30 -10 73
-19 95 -20 34 -2 40 1 49 24 5 16 5 34 0 45 -5 11 -9 73 -9 139 0 133 -5 151
-37 134 -30 -16 -102 -14 -128 4 -12 8 -29 13 -36 10 -9 -3 -14 2 -14 17 0 11
-4 19 -9 15 -5 -3 -32 19 -60 48 -28 30 -68 62 -88 73 -43 21 -103 73 -103 88
0 6 -23 34 -51 62 l-52 53 17 34 c9 19 16 39 16 44 0 4 21 19 47 33 29 15 49
33 51 45 2 11 9 34 17 50 7 17 17 48 20 70 6 33 5 38 -6 28 -21 -20 -42 -16
-36 7 4 16 0 20 -19 20 -13 0 -24 6 -25 13 0 6 -1 30 -2 51 -2 50 -27 62 -27
13 0 -23 -6 -37 -16 -41 -23 -9 -27 -8 -21 9 9 23 -12 29 -34 9 -10 -9 -19
-13 -19 -8 0 20 -17 34 -33 28 -14 -5 -15 -10 -5 -27 7 -12 12 -26 13 -30 0
-5 13 -22 29 -38 22 -22 30 -39 29 -64 -1 -44 -9 -55 -39 -55 -13 0 -33 -9
-45 -21 -12 -12 -27 -18 -36 -15 -14 6 -13 9 4 29 11 12 23 32 26 44 7 30 -29
76 -54 70 -29 -8 -19 24 11 36 9 3 4 6 -12 6 -30 1 -62 49 -47 72 13 20 11 29
-5 29 -18 0 -29 16 -30 44 -1 16 -8 22 -33 24 -18 2 -33 7 -33 11 0 4 -19 13
-42 20 -24 7 -50 19 -59 27 -8 8 -39 16 -68 19 -114 12 -143 48 -150 186 0 14
-12 38 -26 53 -14 15 -25 33 -25 40 0 7 -9 21 -20 31 -11 10 -20 24 -20 30 0
17 -30 28 -31 12 -1 -7 -1 -37 -1 -69 l0 -56 -42 -5 c-58 -8 -79 -4 -111 21
-16 12 -39 25 -52 28 -12 4 -23 10 -23 16 0 5 -6 8 -13 6 -16 -4 -113 91 -109
105 2 6 -1 13 -5 16 -5 3 -21 25 -36 49 -15 23 -32 42 -38 42 -19 0 -79 79
-79 105 0 8 -5 15 -11 15 -6 0 -9 9 -6 19 3 14 -2 21 -20 26 -18 4 -23 10 -18
24 3 11 0 21 -9 24 -8 3 -18 23 -22 44 -3 21 -16 48 -27 60 -18 20 -27 22 -83
18 -35 -3 -75 0 -89 5 -27 10 -128 87 -133 101 -2 5 -10 9 -17 9 -7 0 -15 9
-18 20 -3 13 -10 18 -21 14 -12 -4 -16 0 -16 16 0 11 -4 18 -10 15 -5 -3 -10
-1 -10 6 0 7 -18 35 -39 64 -22 28 -41 63 -43 76 -4 21 -7 18 -26 -24z m650
-835 c40 -41 40 -52 1 -52 -15 0 -43 19 -78 54 -30 30 -55 56 -55 59 0 3 8 7
18 9 23 5 69 -23 114 -70z m278 -209 c0 -18 -48 -17 -66 2 -9 8 -31 15 -50 15
-54 0 -39 17 24 27 50 8 59 6 75 -11 9 -10 17 -25 17 -33z m78 -65 c-3 -7 -13
-13 -23 -13 -10 0 -20 6 -22 13 -3 7 5 12 22 12 17 0 25 -5 23 -12z m142 -140
c18 -17 42 -25 95 -30 147 -14 152 -15 204 -45 2 -2 -2 -10 -10 -19 -11 -14
-11 -18 3 -28 11 -8 14 -17 7 -27 -5 -8 -9 -31 -9 -51 0 -21 -4 -38 -10 -38
-5 0 -13 -12 -16 -26 -4 -14 -12 -23 -19 -20 -6 2 -42 -2 -80 -10 -76 -16 -95
-9 -95 35 0 14 -9 41 -20 59 -11 18 -20 45 -20 60 0 15 -7 36 -15 46 -8 11
-15 27 -15 37 0 9 -9 28 -20 42 -34 43 -20 52 20 15z"/>
<path d="M1331 1177 c-13 -6 -27 -19 -31 -27 -34 -70 -35 -72 -20 -84 8 -6 20
-20 26 -31 14 -25 67 -52 72 -37 2 6 9 9 15 6 19 -7 87 70 87 98 0 13 -13 38
-29 56 -33 35 -76 42 -120 19z"/>
</g>
</svg>
